<?xml version="1.0" standalone="no"?>
<!DOCTYPE svg PUBLIC "-//W3C//DTD SVG 20010904//EN"
 "http://www.w3.org/TR/2001/REC-SVG-20010904/DTD/svg10.dtd">
<svg version="1.0" xmlns="http://www.w3.org/2000/svg"
 width="100.000000pt" height="100.000000pt" viewBox="0 0 100.000000 100.000000"
 preserveAspectRatio="xMidYMid meet">

<g transform="translate(0.000000,100.000000) scale(0.100000,-0.100000)"
fill="#000000" stroke="none">
<path d="M500 745 l0 -75 -195 0 -195 0 0 -170 0 -170 195 0 195 0 0 -75 c0
-41 4 -75 9 -75 9 0 44 27 259 198 78 63 142 117 142 122 0 12 -387 320 -403
320 -4 0 -7 -34 -7 -75z m205 -110 c91 -71 165 -132 165 -136 0 -3 -33 -32
-74 -63 -40 -31 -116 -90 -167 -131 -51 -41 -97 -75 -101 -75 -4 0 -8 29 -8
65 l0 65 -195 0 -195 0 0 140 0 140 195 0 195 0 0 66 c0 38 4 64 10 62 5 -1
84 -61 175 -133z"/>
</g>
</svg>
